HIERARCHY
ROOT Hips
{
	OFFSET	0.00	0.00	0.00
	CHANNELS 6 Xposition Yposition Zposition Zrotation Xrotation Yrotation
	JOINT LeftUpLeg
	{
		OFFSET	 0.126116	-0.014019	-0.065224
		CHANNELS 3 Zrotation Xrotation Yrotation
		JOINT LeftLeg
		{
			OFFSET	 0.000000	 0.000000	 0.569914
			CHANNELS 3 Zrotation Xrotation Yrotation
			JOINT LeftFoot
			{
				OFFSET	 0.000000	 0.000000	 0.544423
				CHANNELS 3 Zrotation Xrotation Yrotation
				JOINT LeftToeBase
				{
					OFFSET	 0.000000	 0.000000	 0.207117
					CHANNELS 3 Zrotation Xrotation Yrotation
					End Site
					{
						OFFSET	 0.000000	 0.000000	 0.207117
					}
				}
			}
		}
	}
	JOINT RightUpLeg
	{
		OFFSET	-0.124023	-0.008373	-0.065224
		CHANNELS 3 Zrotation Xrotation Yrotation
		JOINT RightLeg
		{
			OFFSET	 0.000000	 0.000000	 0.570047
			CHANNELS 3 Zrotation Xrotation Yrotation
			JOINT RightFoot
			{
				OFFSET	 0.000000	 0.000000	 0.544354
				CHANNELS 3 Zrotation Xrotation Yrotation
				JOINT RightToeBase
				{
					OFFSET	 0.000000	 0.000000	 0.207540
					CHANNELS 3 Zrotation Xrotation Yrotation
					End Site
					{
						OFFSET	 0.000000	 0.000000	 0.207540
					}
				}
			}
		}
	}
	JOINT Spine
	{
		OFFSET	 0.000184	-0.007763	 0.117403
		CHANNELS 3 Zrotation Xrotation Yrotation
		JOINT Spine1
		{
			OFFSET	 0.000000	 0.000000	 0.137269
			CHANNELS 3 Zrotation Xrotation Yrotation
			JOINT Spine2
			{
				OFFSET	 0.000000	 0.000000	 0.156879
				CHANNELS 3 Zrotation Xrotation Yrotation
				JOINT LeftShoulder
				{
					OFFSET	 0.080501	-0.002496	 0.160144
					CHANNELS 3 Zrotation Xrotation Yrotation
					JOINT LeftArm
					{
						OFFSET	 0.000000	 0.000000	 0.164363
						CHANNELS 3 Zrotation Xrotation Yrotation
						JOINT LeftForeArm
						{
							OFFSET	 0.000000	 0.000000	 0.364576
							CHANNELS 3 Zrotation Xrotation Yrotation
							JOINT LeftHand
							{
								OFFSET	 0.000000	 0.000000	 0.360812
								CHANNELS 3 Zrotation Xrotation Yrotation
								JOINT LeftHandIndex1
								{
									OFFSET	 0.000000	 0.000000	 0.086006
									CHANNELS 3 Zrotation Xrotation Yrotation
									JOINT LeftHandIndex2
									{
										OFFSET	 0.000000	 0.000000	 0.047236
										CHANNELS 3 Zrotation Xrotation Yrotation
										JOINT LeftHandIndex3
										{
											OFFSET	-0.004284	-0.000551	 0.038166
											CHANNELS 3 Zrotation Xrotation Yrotation
											End Site
											{
												OFFSET	-0.004284	-0.000551	 0.038166
											}
										}
									}
								}
							}
						}
					}
				}
				JOINT Neck
				{
					OFFSET	 0.000000	 0.000000	 0.176489
					CHANNELS 3 Zrotation Xrotation Yrotation
					JOINT Head
					{
						OFFSET	 0.000000	-0.001747	 0.077940
						CHANNELS 3 Zrotation Xrotation Yrotation
						End Site
						{
							OFFSET	 0.000000	-0.001747	 0.077940
						}
					}
				}
				JOINT RightShoulder
				{
					OFFSET	-0.080363	 0.000306	 0.159706
					CHANNELS 3 Zrotation Xrotation Yrotation
					JOINT RightArm
					{
						OFFSET	 0.000000	 0.000000	 0.164196
						CHANNELS 3 Zrotation Xrotation Yrotation
						JOINT RightForeArm
						{
							OFFSET	 0.000000	 0.000000	 0.365611
							CHANNELS 3 Zrotation Xrotation Yrotation
							JOINT RightHand
							{
								OFFSET	 0.000000	 0.000000	 0.360648
								CHANNELS 3 Zrotation Xrotation Yrotation
								JOINT RightHandIndex1
								{
									OFFSET	 0.000000	 0.000000	 0.069977
									CHANNELS 3 Zrotation Xrotation Yrotation
									JOINT RightHandIndex2
									{
										OFFSET	 0.000000	 0.000000	 0.052305
										CHANNELS 3 Zrotation Xrotation Yrotation
										JOINT RightHandIndex3
										{
											OFFSET	 0.009002	-0.000782	 0.042196
											CHANNELS 3 Zrotation Xrotation Yrotation
											End Site
											{
												OFFSET	 0.009002	-0.000782	 0.042196
											}
										}
									}
								}
							}
						}
					}
				}
			}
		}
	}
}
MOTION
Frames:    12
Frame Time: 0.03333334
 0.012997	 0.041088	 1.201841	 4.785991	-1.192484	-2.728764	-3.400146	-11.936970	-171.454700	 0.833320	-38.552330	 0.299522	 51.362620	 80.906880	-55.427430	-2.369958	 31.520860	-0.067800	-1.474006	-30.909710	-175.548100	 10.463730	-50.564000	 8.711657	 17.166100	 73.848530	-13.759420	 2.358654	 33.047050	 0.104314	-7.211360	 8.557134	 2.084483	-2.109102	 2.262300	-1.484490	 3.262418	-2.305538	 1.624968	-93.915960	 58.930740	 175.440500	 17.913380	 37.243110	-40.657210	-1.511860	-0.048893	-0.754239	-3.280803	-28.956670	-8.662871	-4.870305	 19.234800	-2.789498	-3.880330	 21.488130	 2.201536	-4.806652	 5.564508	 0.145857	-0.083253	-5.066335	 0.180407	 1.099409	 1.818668	 2.748394	 89.787170	 61.637750	-179.987900	-20.858630	 54.170080	 11.214890	-1.177723	-2.169208	 11.778900	-3.764418	-14.626480	 0.862097	 6.294621	 24.969200	-0.546078	 1.869917	 44.826330	-6.979214	 0.512271	 24.337580	 3.575372
 0.012817	 0.037584	 1.201726	 4.875162	-1.145008	-2.726978	-3.499365	-11.783690	-171.474500	 0.894464	-38.493580	 0.337199	 51.835000	 80.987530	-55.951380	-2.369813	 31.546770	-0.068377	-1.659732	-31.189680	-175.516700	 10.462760	-50.157250	 8.660598	 17.690610	 74.074330	-14.392260	 2.358740	 33.033720	 0.104005	-7.362139	 8.524100	 2.067785	-2.115043	 2.290256	-1.474745	 3.242899	-2.368412	 1.622888	-93.932500	 58.940310	 175.404000	 17.867820	 37.034560	-40.823330	-1.634941	-0.047709	-0.783126	-3.483598	-29.328590	-8.920426	-4.870238	 19.238230	-2.790053	-3.879606	 21.497390	 2.200799	-4.806478	 5.566469	 0.145745	-0.078320	-5.072231	 0.182912	 1.094216	 1.788878	 2.728819	 89.782030	 61.644230	 179.999700	-20.811700	 54.263390	 10.938700	-1.164630	-2.186453	 11.910420	-3.666735	-14.951850	 0.873403	 6.293540	 24.851650	-0.542521	 1.885813	 44.698110	-6.993397	 0.530627	 24.257120	 3.566067
 0.011836	 0.017927	 1.201024	 5.289789	-0.812571	-2.736568	-3.973800	-10.954520	-171.573100	 1.103574	-38.107760	 0.463401	 54.343170	 81.351170	-58.647990	-2.369095	 31.665660	-0.071075	-2.676769	-32.683300	-175.380000	 10.522220	-47.562090	 8.373971	 19.332390	 74.736160	-16.603460	 2.358948	 33.003540	 0.103305	-8.071251	 8.268602	 1.961594	-2.155970	 2.458362	-1.384230	 3.129050	-2.704064	 1.589136	-94.026120	 58.967400	 175.201000	 17.446230	 35.916340	-41.677910	-2.087743	-0.040921	-0.916466	-4.350968	-31.293820	-9.995446	-4.867837	 19.302390	-2.794853	-3.874682	 21.560230	 2.195802	-4.805372	 5.579595	 0.144975	-0.056376	-5.092268	 0.206362	 1.040339	 1.646031	 2.653085	 89.747730	 61.700920	 179.918000	-20.558200	 54.765590	 9.553192	-1.211782	-2.256732	 12.368690	-3.250648	-16.620720	 0.922249	 6.285320	 24.192180	-0.542649	 1.967394	 44.029920	-7.065979	 0.661254	 23.680910	 3.500434
 0.010592	-0.006720	 1.199973	 5.729769	-0.388955	-2.761905	-4.510357	-9.860506	-171.691600	 1.276085	-37.513160	 0.562308	 57.466660	 81.745500	-61.934730	-2.368341	 31.790740	-0.073911	-3.917077	-34.150630	-175.335500	 10.459080	-43.682040	 7.799079	 20.860040	 75.011480	-18.800240	 2.359032	 32.991820	 0.103031	-8.827880	 7.932912	 1.828261	-2.210738	 2.676498	-1.254702	 2.975174	-3.095764	 1.530055	-94.136140	 58.985270	 174.964200	 16.798140	 34.572480	-42.667160	-2.481966	-0.033221	-1.068506	-5.296070	-33.484930	-11.128120	-4.863974	 19.401330	-2.801349	-3.868466	 21.639560	 2.189484	-4.803968	 5.596093	 0.144006	-0.033759	-5.108757	 0.238749	 0.946656	 1.494180	 2.581316	 89.705100	 61.778210	 179.815500	-20.238900	 55.319970	 8.088529	-1.344345	-2.267055	 12.448540	-2.830131	-18.466670	 0.995689	 6.274441	 23.420140	-0.553479	 2.057127	 43.274620	-7.145476	 0.827343	 22.939810	 3.418541
 0.009168	-0.037376	 1.198326	 6.093309	 0.086222	-2.903692	-4.989441	-8.309098	-171.724000	 1.421877	-36.523710	 0.636362	 61.518930	 82.167140	-66.139960	-2.367135	 31.986330	-0.078363	-4.977893	-35.290700	-175.252000	 10.230040	-38.057830	 6.825415	 21.022220	 73.862600	-19.761170	 2.359853	 32.868970	 0.100187	-9.595218	 7.501598	 1.779189	-2.262132	 3.046984	-1.082875	 2.776567	-3.569138	 1.430840	-94.252340	 58.991480	 174.715300	 15.923890	 33.000090	-43.839960	-3.118416	-0.020875	-1.247967	-6.530482	-36.107030	-12.090430	-4.856657	 19.573190	-2.809603	-3.859589	 21.752420	 2.180466	-4.800040	 5.642362	 0.141295	-0.016252	-5.139709	 0.275635	 0.791124	 1.326221	 2.530270	 89.640220	 61.866600	 179.659000	-19.781110	 55.873350	 6.613205	-1.678128	-2.198665	 11.967450	-2.535417	-20.547520	 0.911183	 6.258673	 22.425460	-0.579886	 2.156437	 42.412720	-7.233048	 1.048355	 21.938960	 3.312369
 0.007900	-0.064542	 1.196387	 6.309906	 0.493331	-3.110606	-5.296196	-6.832280	-171.674400	 1.510965	-35.478350	 0.672304	 65.135760	 82.478840	-69.861630	-2.365820	 32.196340	-0.083161	-5.620276	-35.797540	-175.156800	 10.052760	-32.570310	 5.869207	 20.141290	 71.967030	-19.555630	 2.361114	 32.680340	 0.095819	-10.185590	 7.090180	 1.812461	-2.290920	 3.415994	-0.914661	 2.578744	-3.980572	 1.316882	-94.347120	 58.986240	 174.514000	 15.193710	 31.706420	-44.805290	-3.815174	-0.007240	-1.409621	-7.689343	-38.472640	-12.683810	-4.848099	 19.767120	-2.817465	-3.850508	 21.867580	 2.171241	-4.794881	 5.703134	 0.137730	-0.007116	-5.175773	 0.307795	 0.613757	 1.184584	 2.507944	 89.571650	 61.944020	 179.492800	-19.301050	 56.254620	 5.547599	-2.105148	-2.069083	 11.130770	-2.431278	-22.319100	 0.711223	 6.242074	 21.472410	-0.613344	 2.240612	 41.660050	-7.306907	 1.263322	 20.949600	 3.212213
 0.006515	-0.089747	 1.193913	 6.436088	 0.771333	-3.307869	-5.522152	-5.335565	-171.623600	 1.573210	-34.484690	 0.691095	 67.554440	 82.702090	-72.346950	-2.363181	 32.606240	-0.092570	-5.741345	-36.088540	-175.003300	 9.777075	-27.968570	 4.995998	 23.755510	 72.213840	-23.629110	 2.358772	 33.028420	 0.103889	-10.743530	 6.722362	 1.865470	-2.291686	 3.866853	-0.750647	 2.378429	-4.392727	 1.195033	-94.413790	 58.977000	 174.373600	 14.544430	 30.732240	-45.570990	-4.453008	 0.007228	-1.574559	-8.958896	-40.549010	-13.326680	-4.838407	 19.968110	-2.821326	-3.839690	 22.004430	 2.160243	-4.785652	 5.811580	 0.131354	 0.005293	-5.219134	 0.328021	 0.429459	 1.036031	 2.471898	 89.511870	 61.998850	 179.347400	-18.684900	 56.523920	 4.527474	-2.578573	-1.944923	 10.357130	-2.390556	-24.086730	 0.376195	 6.222683	 20.422560	-0.653774	 2.361396	 40.543180	-7.412281	 1.489797	 19.890470	 3.110129
 0.004679	-0.116815	 1.189960	 6.507288	 0.982576	-3.521385	-5.716183	-3.648863	-171.568500	 1.626100	-33.541130	 0.703668	 70.203180	 82.946900	-75.048620	-2.359110	 33.214520	-0.106644	-5.194211	-37.164050	-174.606900	 9.574122	-24.988210	 4.403826	 33.735960	 74.281010	-33.925410	 2.353182	 33.823670	 0.122500	-11.332690	 6.348341	 1.940354	-2.266324	 4.447410	-0.566207	 2.141662	-4.857835	 1.047210	-94.466550	 58.963560	 174.263300	 13.902190	 29.902530	-46.336260	-5.120009	 0.024910	-1.758815	-10.450990	-42.580960	-14.087920	-4.826770	 20.197340	-2.822577	-3.826271	 22.173270	 2.146618	-4.772281	 5.968549	 0.122085	 0.021568	-5.272983	 0.341504	 0.208616	 0.867651	 2.420071	 89.451970	 62.042820	 179.201400	-17.896420	 56.761600	 3.156365	-3.127049	-1.919345	 10.068230	-2.413077	-25.990270	-0.101167	 6.198518	 19.179810	-0.704106	 2.518455	 39.022490	-7.548120	 1.748960	 18.657710	 2.997727
 0.002376	-0.145203	 1.184790	 6.642354	 1.060610	-3.693991	-6.005689	-1.727811	-171.564100	 1.727370	-32.599440	 0.740713	 70.775670	 83.129910	-75.690340	-2.350748	 34.374250	-0.133919	-4.871895	-38.963210	-174.321300	 9.798119	-23.541100	 4.256671	 39.293830	 74.403830	-40.059360	 2.345351	 34.860070	 0.147145	-12.033780	 6.217743	 1.994737	-2.225775	 4.846734	-0.381394	 1.877673	-5.342749	 0.884994	-94.507190	 58.936260	 174.181100	 13.178810	 29.326070	-46.975250	-5.542889	 0.042820	-1.946679	-12.280380	-44.686530	-15.475540	-4.830944	 20.355960	-2.893377	-3.810447	 22.371530	 2.130543	-4.752803	 6.196485	 0.108567	 0.055823	-5.329115	 0.349394	-0.013798	 0.729805	 2.278557	 89.404650	 62.025640	 179.087600	-16.999820	 56.942450	 1.319277	-3.583912	-2.000846	 10.349590	-2.281785	-28.007150	-0.506784	 6.180095	 17.883600	-0.711658	 2.680320	 37.369590	-7.686632	 2.014875	 17.370320	 2.887463
-0.000018	-0.172315	 1.179450	 6.792693	 1.076537	-3.837476	-6.323931	 0.216610	-171.583500	 1.835392	-31.573180	 0.776434	 69.725500	 83.269470	-74.699750	-2.340525	 35.663470	-0.164933	-4.689006	-40.906020	-174.137000	 10.214830	-23.089690	 4.348233	 42.423550	 74.038970	-43.861350	 2.336744	 35.910500	 0.172654	-12.722860	 6.197707	 2.036944	-2.182469	 5.095510	-0.216024	 1.604871	-5.770690	 0.724169	-94.539800	 58.905550	 174.117000	 12.540610	 28.941120	-47.458000	-5.834719	 0.060634	-2.124815	-14.147740	-46.513210	-17.066000	-4.841032	 20.473270	-2.986660	-3.794866	 22.565680	 2.114719	-4.732377	 6.434736	 0.094337	 0.094595	-5.381623	 0.354439	-0.234828	 0.619946	 2.111009	 89.366130	 61.985180	 178.996100	-16.121850	 57.051670	-0.522882	-3.974656	-2.119237	 10.812730	-2.105977	-29.787570	-0.850189	 6.165988	 16.670160	-0.701724	 2.826611	 35.796210	-7.810380	 2.259941	 16.164280	 2.790525
-0.002804	-0.198170	 1.174449	 6.912280	 1.052002	-3.782413	-6.680064	 2.132295	-171.800200	 2.034827	-30.511860	 0.854216	 62.392820	 83.095870	-67.452350	-2.321602	 37.763690	-0.217231	-4.468385	-42.446430	-174.183400	 10.208050	-22.886190	 4.309397	 37.508680	 72.506560	-39.093270	 2.336329	 35.959440	 0.173853	-13.406790	 6.149057	 1.954268	-2.115023	 5.396325	-0.125503	 1.324413	-6.128735	 0.575032	-94.537090	 59.009810	 174.105400	 11.985890	 28.817350	-47.863610	-6.118937	 0.078769	-2.291238	-16.157030	-48.059710	-18.815820	-4.855543	 20.534310	-3.089036	-3.781963	 22.725840	 2.101617	-4.709985	 6.695055	 0.078687	 0.130422	-5.425166	 0.327532	-0.430852	 0.550772	 1.985353	 89.357590	 61.863100	 178.979900	-15.412830	 57.039310	-2.224904	-4.227738	-2.279883	 11.515770	-1.938148	-31.354290	-1.048915	 6.170466	 15.575590	-0.605591	 2.915209	 34.804540	-7.884615	 2.476602	 15.082780	 2.708646
-0.006039	-0.227476	 1.169457	 7.039963	 1.011632	-3.663587	-7.095321	 4.423635	-172.098400	 2.272910	-28.925760	 0.929019	 51.681160	 82.539920	-56.816950	-2.294204	 40.336970	-0.284693	-4.246883	-43.567160	-174.353400	 10.067340	-22.563200	 4.196305	 31.837540	 70.502510	-33.427750	 2.338247	 35.733360	 0.168316	-14.177410	 6.090165	 1.825696	-2.040227	 5.647745	-0.060937	 0.987609	-6.455321	 0.409834	-94.524150	 59.164140	 174.107200	 11.472070	 28.805070	-48.144410	-6.436214	 0.100692	-2.474874	-18.450710	-49.510880	-20.839380	-4.872941	 20.586730	-3.205958	-3.768243	 22.895230	 2.087694	-4.684336	 6.991999	 0.060704	 0.169598	-5.471302	 0.288537	-0.660683	 0.489931	 1.855464	 89.356290	 61.703840	 178.982900	-14.672580	 56.946220	-3.892633	-4.485188	-2.409176	 12.101240	-1.759138	-32.870760	-1.237183	 6.182897	 14.386310	-0.474903	 2.997209	 33.859830	-7.952806	 2.708619	 13.909380	 2.625052
